<svg width="60" height="60" viewBox="0 0 60 60" fill="none" xmlns="http://www.w3.org/2000/svg">
<g clip-path="url(#clip0_6_56)">
<path fill-rule="evenodd" clip-rule="evenodd" d="M37.1311 29.9999L58.5233 8.60767C60.4925 6.63849 60.4925 3.44582 58.5233 1.47692C56.5541 -0.492258 53.3617 -0.492258 51.3926 1.47692L30 22.8694L8.60754 1.47664C6.63836 -0.492539 3.44598 -0.492539 1.4768 1.47664C-0.492103 3.44582 -0.492103 6.63849 1.4768 8.60739L22.8693 29.9996L1.4768 51.3921C-0.492103 53.3613 -0.492103 56.554 1.4768 58.5229C3.44598 60.4921 6.63836 60.4921 8.60754 58.5229L30 37.1304L51.3926 58.5229C53.3615 60.4921 56.5541 60.4921 58.5233 58.5229C60.4925 56.5537 60.4925 53.3613 58.5233 51.3921L37.1311 29.9999Z" fill="white"/>
</g>
<defs>
<clipPath id="clip0_6_56">
<rect width="60" height="60" fill="white"/>
</clipPath>
</defs>
</svg>
