<svg width="65" height="69" viewBox="0 0 65 69" fill="none" xmlns="http://www.w3.org/2000/svg">
<path d="M32.376 68.28C25.976 68.28 20.344 66.7867 15.48 63.8C10.616 60.8133 6.81867 56.76 4.088 51.64C1.44267 46.4347 0.12 40.5893 0.12 34.104C0.12 27.5333 1.48533 21.7307 4.216 16.696C6.94667 11.6613 10.7013 7.69333 15.48 4.792C20.344 1.89066 25.976 0.439995 32.376 0.439995C38.8613 0.439995 44.4933 1.89066 49.272 4.792C54.136 7.69333 57.8907 11.6613 60.536 16.696C63.2667 21.7307 64.632 27.5333 64.632 34.104C64.632 40.5893 63.2667 46.4347 60.536 51.64C57.8907 56.76 54.136 60.8133 49.272 63.8C44.4933 66.7867 38.8613 68.28 32.376 68.28ZM32.376 59.576C36.8133 59.576 40.6533 58.5093 43.896 56.376C47.1387 54.1573 49.656 51.128 51.448 47.288C53.24 43.448 54.136 39.0107 54.136 33.976C54.136 26.4667 52.1307 20.4507 48.12 15.928C44.1947 11.4053 38.9467 9.144 32.376 9.144C25.8907 9.144 20.6427 11.4053 16.632 15.928C12.6213 20.4507 10.616 26.4667 10.616 33.976C10.616 39.0107 11.512 43.448 13.304 47.288C15.096 51.128 17.6133 54.1573 20.856 56.376C24.184 58.5093 28.024 59.576 32.376 59.576Z" fill="white"/>
</svg>
