<svg version="1.2" xmlns="http://www.w3.org/2000/svg" viewBox="0 0 138 70" width="138" height="70"><style>.a{fill:#81b3d3}.b{fill:#23a9e1}.c{fill:#fff}.d{fill:#491213}.e{fill:#dc6243}.f{fill:#f49774}.g{fill:#f4b1a4}</style><path class="a" d="m138 0h-138l59.5 65.7c5.2 5.7 13.8 5.7 19 0z"/><path class="b" d="m36.7 0.5l32.1 37.8 32.1-37.6z"/><path fill-rule="evenodd" class="c" d="m57.3 10.3c3.1-2 4.4 0.8 7.1-1.7 3.1-2.8 7.8 3.1 8 2.9 1.7-1.4 4.7 2.4 6 3.2h-17.3c-1.7-0.8-7.3-2.1-3.8-4.4zm30.5 0.9l-9.8 0.1c3.9-4.5 5.6-4 9.8-0.1z"/><path fill-rule="evenodd" class="d" d="m102 0v15l-32.9 39.2-0.3 0.3-32.8-39.9v-14.6h33.1zm-52.8 14c2.6-4.6 6.4-5.2 10.5-0.3 1.6 1.9 1.7 3.5 2.8 3.6 2 0.1 2.2-2.4 3.8-2.8 1.9-0.5 2.4 0.3 3.4 0.7 1 0.4 1.7 0.2 2.2 1.2 0.7 1.3 0.7 2.5 2.9 2.9 4.4 0.7 7.6-2.6 12.1-3.2l2.5-3c-0.1-0.1-2.4-2.5-6.1-4.9-3.4-2.3-8.7-5-14.5-5-5.8 0-11 2.7-14.4 4.9-3.7 2.5-6 5-6 5l-0.1-0.1zm0 0l19.7 23.3-19.7-23.3q0 0 0 0zm-10.8-12.8l1.6 1.9v-1.9zm55.5 6.8l3.3-3.8v-3h-3.3zm-4 4.6q0 0 0 0.1 0 0 0 0 0 0 0 0l3.5-4.1v-7.4h-3.5v11.4q0 0 0 0zm-4.1-3.5q0.5 0.4 0.9 0.8 0.5 0.3 0.9 0.7 0.5 0.4 0.9 0.8 0.4 0.3 0.9 0.7v-9.9zm-4.3-2.8q1.2 0.7 2.2 1.4 0.8 0.5 1.5 1v-6.8zm-3.8-1.9q0.4 0.2 0.8 0.4 0.4 0.2 0.8 0.3 0.4 0.2 0.7 0.4 0.4 0.2 0.8 0.4v-4.2zm3.6 1.2l3.8-4.6h-3.8zm4.3 2.5l3.7-7h-3.7zm-8.8-4.1q0.2 0.1 0.4 0.2l3.5-3.2h-3.9c0 0 0 3 0 3zm-3.6-1q0.4 0 0.8 0.1 0.4 0.1 0.8 0.3 0.4 0.1 0.8 0.2 0.4 0.1 0.7 0.2v-2.4zm-3.2-0.4q0.2 0 0.5 0 0.3 0 0.5 0.1 0.3 0 0.6 0 0.3 0.1 0.5 0.1v-1.2zm-4.6 0.2q1.2-0.2 2.3-0.2l-2.3-1.1zm-4.1 1.1q1.5-0.5 3.1-0.9l-3.1-1.5zm3.6-2.8h-3.3l3.3 1.6zm3.6 0h-2.8l2.8 1.3zm0.6 1.4l2.9-1.4h-2.9zm3.8 0.3l3.2-1.6h-3.2zm-12.1 1.4v-3h-3.8l3.5 3.1zm-4 1.9q0.4-0.3 0.7-0.5 0.4-0.1 0.8-0.3 0.4-0.2 0.8-0.4 0.4-0.2 0.8-0.3l-3.1-2.8zm-4.3 2.8q0.4-0.3 0.9-0.6 0.4-0.3 0.9-0.6 0.4-0.4 0.9-0.6 0.4-0.3 0.9-0.6l-3.6-4.5zm-4.2 3.6q0.4-0.4 0.9-0.8 0.4-0.4 0.8-0.8 0.5-0.4 1-0.8 0.4-0.4 0.9-0.7l-3.6-7zm3.7-11.2h-3.7l3.7 7.1zm4.3 0h-3.8l3.8 4.5zm-12.6 0h-3.2v2.6l3.2 3.8zm0.6 6.9l3.5 4.3v-11.2h-3.5zm55.4-7h-2.1v2.5z"/><path class="b" d="m66.2 46l2.6-4.2 2.6 4.2-2.6 4.3z"/><path fill-rule="evenodd" class="e" d="m74.2 30.6c-3.4-2.1-2.5-3.6 0.2-5 1.5-0.7 4.8-3.3 6.2-2.5zm-4.6 3.9c0.4 0.2 0.6 0.5 1 0.7-1 1.2-2.6 1.3-3.6-0.1 2.7-0.7-0.2-1.6-1.4-1.9 1.9-0.4 4.2-0.1 6.2-0.1-0.1 0.6-1.1 1.2-2.2 1.4zm-6.6-4.6c1.9 0.3 6.2-0.5 7.3 1.7 0.9-0.9 1.8-0.8 2.8 0-0.5 1.4-9.1 0.9-10.1-1.7zm3.3-0.5c-1.6-0.5-6.8-0.3-3.4-1.8 1.1-0.4 6.6 0.1 3.4 1.8zm1.9-3c-0.5-1.1 0.4-2.4 1.8-1.4 1.2 0.8-0.6 2-1.8 1.4zm-2.8 0.1c-2.3 0.7-5.3-0.8-1.6-1.5 2.2-0.5 4.6 0.5 1.6 1.5zm-2.7-6.2c-0.5 1.6-1.5 1.9-1.4-0.1 0.1-2.3 1.6-1.7 3.2-2.6 1.3-0.7 2-3.4 4.3-1.8 1 0.7 2.2 0.1 2.5 1.2 0-0.1-2.9 6.7-1.3 6.7-3.2 0-1.8-3.9-0.6-6.4-1.2 0.5-3.1 4.3-1.5 4.9-0.9 1.1-3.4 2.6-4.7 1.5-1-0.8-0.5-2.1-0.5-3.4zm-3.9 2.8c-5.6-0.1-1.9-8.7 0-8.2 2.2 0.7 2 8.2 0 8.2zm-6.2-8.2c-2.6-0.1-1.5-2.6 0.2-3.1 1.7-0.5 5.3 1.1 6.4 2.2-1.8 0.6-4.1 0.5-6.1 0.6-0.1-2.1-0.6-1.4-0.5 0.3z"/><path class="f" d="m71.8 25.8c-2.9-3 4.3-2.7 5.5-3.7 0.8 0.3 7-5.4 8.5-5.1-1.1 1.3-3.4 5.3-5.1 5.3-1.3 0-2.5-0.2-3.5 0.7-1.5 1.4-3.9 2-5.4 2.8z"/><path class="g" d="m72.7 22.2c-1.6 0.8-3.1-2.6-0.3-2.2 1.8 0.2 3.7-0.2 5.4 0.1-1.3 1.5-3.1 2.3-5.1 2.1z"/><path fill-rule="evenodd" class="c" d="m47.2 24.3c-0.2 0.4 0.3 0.7-0.1 0.8l-1.5-1.7c-0.1-0.1-0.7-0.6-0.6-0.8 0-0.3 0.5 0.1 0.7 0.1 0.3-0.1 3-2.4 4.1-3.3-0.3-0.4-0.7-0.7-1.3-0.8-0.3 0-1.1 0.4-1.2 0l2.1-1.1c0 0.4 3.1 4.1 3.5 4.2l-1.4 1.8c-0.5-0.2 0.1-0.8 0.1-1.2 0.1-0.5-0.2-1-0.5-1.4-0.7 0.7-3.8 3.2-3.9 3.4zm-3.3-4.9c-0.2 0.2-0.6 0.5-0.5 0.8 0 0 0.1 0.6-0.2 0.4q-0.2-0.3-0.4-0.6-0.8-0.8-1.5-1.7c0.3-0.3 0.4 0.1 0.7 0 0.3-0.1 4.3-3.4 4.3-3.8-0.1-0.6 0.2-0.3 0.4 0l1.6 1.9c-0.2 0.3-0.3-0.1-0.6 0-0.3 0-2.8 2.1-3.8 3zm-0.5 0.8q0 0 0 0 0 0 0 0zm-1.4-4.4c0 0.1 0.1 0.2 0.1 0.2-0.4 0.2-2 0.9-2.1 0.9-0.4-0.8-1.1-1.2-1.6-1.8-0.6-0.8-0.9-1.7-0.8-2.6 0.1-1.8 1.9-3.7 3.7-3.4 1 0.1 1.7 0.8 2.3 1.5 0.5 0.5 0.8 1.2 1.5 1.6q-0.8 1.1-1.7 2.2c-0.4-0.2-0.1-0.5 0-0.9 0.2-0.5 0.3-1.1 0-1.6-0.5-1.2-1.9-1.2-2.8-0.5-0.9 0.6-1.7 1.9-1.3 3.1 0.3 1.2 1.5 1.6 2.7 1.3-0.1 0-0.5 0.1 0 0q0 0 0 0zm25.5 23.6q0 0.1 0.1 0.1 0 0 0 0 0.1 0 0.1 0 0 0 0.1 0l-1.4 1.9c-0.3-0.1-0.1-0.3 0-0.6q0.1-0.6 0-1.1c-0.1-0.4-0.5-1.6-1.1-1.4-0.4 0.1-0.7 0.5-1 0.7 0 0.1 0.6 0.7 0.7 0.8 0.2 0.1 0.4 0.1 0.7 0-0.1 0 0.4-0.2 0.3 0-0.2 0.2-1.3 1.5-1.7 2-0.3-0.2 0.1-0.5 0.1-0.8 0.1-0.3 0-0.7-0.2-1-0.1-0.2-0.3-0.6-0.5-0.4-0.6 0.5-2.3 1.8-2.3 2-0.1 0.2 0.1 0.7-0.2 0.7-0.1 0-1.5-1.8-1.9-2.3 0.2-0.3 0.6 0 0.9-0.2 0.2-0.2 3.4-2.6 3.9-3.4 0.2-0.2 0-0.5 0.1-0.6-0.1 0.1 0.1-0.1 0.1-0.1l0.2 0.3c0.4 0.4 2.3 2.9 3 3.4zm-6.1-7.4c1.1 1.5 0.9 3.6-0.5 4.8-1.7 1.2-3.8 1-5.1-0.7-1.1-1.5-0.9-3.6 0.5-4.8q0.2-0.2 0.4-0.3 0.3-0.1 0.5-0.2 0.3-0.1 0.5-0.2 0.3-0.1 0.6-0.1c1.1 0 2.3 0.5 3.1 1.5zm-2.4 0c-1 0.4-2 1.4-2.4 2.4-0.5 1.1 0.4 2.1 1.5 1.7 1-0.4 2-1.4 2.5-2.4 0.4-1-0.2-1.9-1.1-1.8q-0.2 0-0.5 0.1zm-2.4-4.7c-0.9-0.1-2 0.2-3 0.3-0.6 0.1-2.1 1.6-2.2 1.9-0.1 0.1 0.2 0.7-0.1 0.7-0.1 0-0.4-0.5-0.5-0.6l-1.6-1.9c0.2-0.4 0.4 0.1 0.8 0 0.3-0.1 1.4-1.1 1.7-1.4 0.7-0.5 1.2-2.7 1.3-2.9 0-0.1 0.1-1.1 0-1.1 0.3-0.2 0.5 0.2 0.7 0.5l1.8 2.1c-0.3 0.3-0.5-0.2-0.9 0.1-0.1 0.1-0.6 1.4-0.7 1.8 0.4-0.1 1.9-0.3 2-0.6 0.2-0.2-0.2-0.4 0.2-0.6l1.4 1.7c-0.2 0.3-0.5 0-0.8 0q-0.1 0-0.1 0zm0.1 0c0 0 0.1 0 0 0q0 0 0 0zm-0.1 0q0 0 0.1 0-0.1 0-0.1 0zm24.3 5.8q0.1 0.3 0.3 0.6 0.2 0.3 0.4 0.6 0.2 0.3 0.4 0.6 0.2 0.3 0.4 0.6c-0.6 0.2-3.2 3.7-3.5 4.1 0 0-0.2-0.2-0.2-0.2-0.1-0.1 0.1-0.3 0.1-0.4-0.1-0.3-4.3-3.7-4.6-3.6 0 0-0.4 0.2-0.4 0 0-0.2 0.4-0.5 0.4-0.6 0.5-0.6 2.8-3 2.7-3.5q1.1 0.5 2.1 1c-0.1 0.4-0.9 0.1-1.3 0.1-0.5 0.2-1 0.5-1.3 0.9-0.6 0.7 0.2 1.1 0.7 1.5 0.2-0.3 0.4-0.5 0.6-0.8 0.2-0.4-0.4-0.8-0.2-1 0.1-0.1 1.9 1.1 2.1 1.2 0.3 0.2 0.1 0.3-0.2 0.2-0.8-0.3-1.3 0.2-1.8 0.8 0.6 0.6 1.3 1.3 2.1 1.7 0.7 0.4 1.3-1 1.4-1.5 0-0.5 0-0.9-0.2-1.4-0.1-0.2-0.4-0.7 0-0.9zm-3.8 8.9c-0.4 0.5-0.9 0.9-1.3 1.4-0.4 0.3-0.7 0.5-0.7 1l-2.3-1.7c0.2-0.4 0.5 0 0.8 0.1 0.4 0.1 0.8 0.2 1.2 0.1 0.7-0.2 1.4-0.9 1.6-1.6 0.2-0.8-0.6-1.1-1.3-0.8-0.4 0.2-0.8 0.5-1.2 0.8-0.7 0.4-1.5 0.7-2.2 0.3-0.6-0.3-1.1-1-1.1-1.7 0-0.8 0.5-1.5 1-2.1 0.4-0.4 1.2-0.9 1.3-1.6q0.9 0.6 1.7 1.2c0.1 0.1 0.1 0.1 0 0.2-0.1 0.1-0.8 0-1 0-0.6 0-1.2 0.3-1.5 0.8-0.3 0.6 0.2 1.3 0.9 1 0.3-0.2 2.6-1.9 3.9-1 1.2 0.9 0.9 2.5 0.2 3.6zm17.8-31.1c0.4 0.3 5.4 2.3 5.8 1.8 0.1 0.1 0.2 0.2 0.3 0.2l-2.2 2.6c0 0-0.1-0.1-0.2-0.1-0.1-0.1 0.1-0.3 0.1-0.5-0.2-1-1.8-0.5-2.3-0.2-0.2 0.1-0.8 0.4-0.6 0.7 0.1 0.3 0.7 1.3 0.9 1.4 0.4 0.4 0.6-0.2 0.9 0.1 0.1 0.1-0.8 1.1-1.1 1.4l-0.1 0.1q0 0 0 0.1 0 0 0 0-0.1 0-0.1 0 0 0.1 0 0.1l-0.2 0.2q-0.4 0.5-0.9 1.1c-0.3-0.2-0.1-0.3 0-0.5 0-0.2-0.5-0.8-0.7-0.8l-5.4 0.2c1 0.8 3.5 2.9 3.9 3 0.3 0 0.3-0.4 0.6-0.1 0.1 0 0.1 0 0 0.1l-1.2 1.4c-0.3-0.1 0-0.5-0.2-0.8-0.2-0.1-4.1-3.5-4.4-3.3-0.3 0.1-0.2 0.1-0.4-0.1-0.1 0-0.1 0 0 0l0.8-1.1 1.5-1.8c0.4 0.2 0.1 0.7 0.7 0.6 0.1 0.1 1.4 0 1.9 0-0.3-0.2-1.2-1.1-1.5-1.1-0.3-0.1-0.4 0.3-0.6 0l0.6-0.7c0.1-0.1 0.4-0.7 0.5-0.7 0.4-0.1 0.1 0.5 0.2 0.6 0.1 0.2 4.1 3.7 4.6 3.5 0.2-0.7-2.7-5.8-3.3-5.5-0.3-0.2-0.1-0.3 0.1-0.5l0.8-0.9 0.8-1q0 0 0 0 0 0 0 0 0 0 0-0.1 0 0 0 0c0.2 0 0.2 0.6 0.4 0.6zm0.4 3.7q0.1 0 0.2-0.1 0.1-0.1 0.1-0.1 0.1-0.1 0.2-0.1 0.1-0.1 0.2-0.2 0.3-0.2 0.6-0.3-1.1-0.4-2.3-0.9zm-7.1 6.1q0.3 0 0.5 0.1 0.3 0.1 0.5 0.3 0.2 0.1 0.4 0.3c1.5 1.2 1.6 3.4 0.4 4.9-1.2 1.5-3.4 1.8-4.9 0.6-1.5-1.3-1.6-3.5-0.4-5 0.8-0.9 1.9-1.4 3-1.3q0.3 0 0.5 0.1zm-2.9 1.8c-0.8 1 0.4 2.2 1.2 2.7 0.7 0.5 2.1 1.3 2.9 0.5q0 0 0 0 0 0 0 0 0 0 0 0 0 0 0 0c0.2-0.2 0.1-0.2 0.1-0.1 0.7-1.1-0.7-2.2-1.5-2.7-0.4-0.3-1.1-0.7-1.7-0.7-0.4-0.1-0.8 0-1 0.3zm0 4.8c0.2 0.1 0.1 0.1 0 0 0.9 0.8 1.3 2 0.9 3.2-0.3 0.6-3.1 4.1-3.2 4-0.3-0.2 0-0.3-0.1-0.6-0.1-0.2-3.9-3.3-4.2-3.5-0.3-0.2-0.6 0.3-0.8-0.1q1-1.1 1.9-2.3c0.9-1.1 2.1-1.6 3.3-1.6q1.1 0.1 2.2 0.9zm-5.3 1.6c-0.1 0.2 3.9 3.4 4 3.2 0.5-0.4 0.3-0.2 0.5-0.4 1.2-1.5-0.7-3.3-2.1-3.7q-0.2 0-0.3 0c-0.7 0-1.6 0.4-2.1 0.9z"/></svg>